#tb 0: 1/25
0,          0,          0,        1,   203280, 0x47c3e3a0
0,          1,          1,        1,   203280, 0x6494c4db
0,          2,          2,        1,   203280, 0x042fe3a0
0,          3,          3,        1,   203280, 0xba9be3a0
